{
  "accessors": [
    {
      "bufferView": 0,
      "componentType": 5125,
      "count": 9960,
      "type": "SCALAR"
    },
    {
      "bufferView": 1,
      "componentType": 5126,
      "count": 1762,
      "max": [
        4.17861175537109,
        4.16529893875122,
        0.987764120101929
      ],
      "min": [
        2.20308327674866,
        0.0,
        -0.9877650141716
      ],
      "type": "VEC3"
    },
    {
      "bufferView": 2,
      "componentType": 5126,
      "count": 1762,
      "type": "VEC3"
    },
    {
      "bufferView": 3,
      "componentType": 5126,
      "count": 1762,
      "type": "VEC2"
    },
    {
      "bufferView": 4,
      "componentType": 5125,
      "count": 9960,
      "type": "SCALAR"
    },
    {
      "bufferView": 5,
      "componentType": 5126,
      "count": 1762,
      "max": [
        7.57664585113525,
        4.16529893875122,
        1.21708595752716
      ],
      "min": [
        5.1424732208252,
        0.0,
        -1.21708703041077
      ],
      "type": "VEC3"
    },
    {
      "bufferView": 6,
      "componentType": 5126,
      "count": 1762,
      "type": "VEC3"
    },
    {
      "bufferView": 7,
      "componentType": 5126,
      "count": 1762,
      "type": "VEC2"
    },
    {
      "bufferView": 8,
      "componentType": 5125,
      "count": 22884,
      "type": "SCALAR"
    },
    {
      "bufferView": 9,
      "componentType": 5126,
      "count": 4247,
      "max": [
        -4.40059375762939,
        5.3906569480896,
        -1.00595104694366
      ],
      "min": [
        -6.00148487091064,
        1.1410870552063,
        -1.71472418308258
      ],
      "type": "VEC3"
    },
    {
      "bufferView": 10,
      "componentType": 5126,
      "count": 4247,
      "type": "VEC3"
    },
    {
      "bufferView": 11,
      "componentType": 5126,
      "count": 4247,
      "type": "VEC2"
    },
    {
      "bufferView": 12,
      "componentType": 5125,
      "count": 960,
      "type": "SCALAR"
    },
    {
      "bufferView": 13,
      "componentType": 5126,
      "count": 220,
      "max": [
        -5.01459741592407,
        3.88752794265747,
        -1.03831303119659
      ],
      "min": [
        -5.38883018493652,
        1.17341113090515,
        -1.68227100372314
      ],
      "type": "VEC3"
    },
    {
      "bufferView": 14,
      "componentType": 5126,
      "count": 220,
      "type": "VEC3"
    },
    {
      "bufferView": 15,
      "componentType": 5126,
      "count": 220,
      "type": "VEC2"
    },
    {
      "bufferView": 16,
      "componentType": 5125,
      "count": 26598,
      "type": "SCALAR"
    },
    {
      "bufferView": 17,
      "componentType": 5126,
      "count": 4833,
      "max": [
        0.984705030918121,
        6.48957204818726,
        0.984705090522766
      ],
      "min": [
        -0.984705865383148,
        4.95641279220581,
        -1.33151006698608
      ],
      "type": "VEC3"
    },
    {
      "bufferView": 18,
      "componentType": 5126,
      "count": 4833,
      "type": "VEC3"
    },
    {
      "bufferView": 19,
      "componentType": 5126,
      "count": 4833,
      "type": "VEC2"
    },
    {
      "bufferView": 20,
      "componentType": 5125,
      "count": 14760,
      "type": "SCALAR"
    },
    {
      "bufferView": 21,
      "componentType": 5126,
      "count": 2946,
      "max": [
        0.987764060497284,
        4.16529893875122,
        0.987764120101929
      ],
      "min": [
        -0.987763941287994,
        0.0,
        -0.987764000892639
      ],
      "type": "VEC3"
    },
    {
      "bufferView": 22,
      "componentType": 5126,
      "count": 2946,
      "type": "VEC3"
    },
    {
      "bufferView": 23,
      "componentType": 5126,
      "count": 2946,
      "type": "VEC2"
    },
    {
      "bufferView": 24,
      "componentType": 5125,
      "count": 5400,
      "type": "SCALAR"
    },
    {
      "bufferView": 25,
      "componentType": 5126,
      "count": 1422,
      "max": [
        -2.00899600982666,
        5.53137493133545,
        -0.976824998855591
      ],
      "min": [
        -3.63668012619019,
        3.52480411529541,
        -1.4086549282074
      ],
      "type": "VEC3"
    },
    {
      "bufferView": 26,
      "componentType": 5126,
      "count": 1422,
      "type": "VEC3"
    },
    {
      "bufferView": 27,
      "componentType": 5126,
      "count": 1422,
      "type": "VEC2"
    }
  ],
  "asset": {
    "generator": "Substance Painter 6.2.2",
    "version": "2.0"
  },
  "bufferViews": [
    {
      "buffer": 0,
      "byteLength": 39840,
      "target": 34963
    },
    {
      "buffer": 0,
      "byteLength": 21144,
      "byteOffset": 39840,
      "target": 34962
    },
    {
      "buffer": 0,
      "byteLength": 21144,
      "byteOffset": 60984,
      "target": 34962
    },
    {
      "buffer": 0,
      "byteLength": 14096,
      "byteOffset": 82128,
      "target": 34962
    },
    {
      "buffer": 0,
      "byteLength": 39840,
      "byteOffset": 96224,
      "target": 34963
    },
    {
      "buffer": 0,
      "byteLength": 21144,
      "byteOffset": 136064,
      "target": 34962
    },
    {
      "buffer": 0,
      "byteLength": 21144,
      "byteOffset": 157208,
      "target": 34962
    },
    {
      "buffer": 0,
      "byteLength": 14096,
      "byteOffset": 178352,
      "target": 34962
    },
    {
      "buffer": 0,
      "byteLength": 91536,
      "byteOffset": 192448,
      "target": 34963
    },
    {
      "buffer": 0,
      "byteLength": 50964,
      "byteOffset": 283984,
      "target": 34962
    },
    {
      "buffer": 0,
      "byteLength": 50964,
      "byteOffset": 334948,
      "target": 34962
    },
    {
      "buffer": 0,
      "byteLength": 33976,
      "byteOffset": 385912,
      "target": 34962
    },
    {
      "buffer": 0,
      "byteLength": 3840,
      "byteOffset": 419888,
      "target": 34963
    },
    {
      "buffer": 0,
      "byteLength": 2640,
      "byteOffset": 423728,
      "target": 34962
    },
    {
      "buffer": 0,
      "byteLength": 2640,
      "byteOffset": 426368,
      "target": 34962
    },
    {
      "buffer": 0,
      "byteLength": 1760,
      "byteOffset": 429008,
      "target": 34962
    },
    {
      "buffer": 0,
      "byteLength": 106392,
      "byteOffset": 430768,
      "target": 34963
    },
    {
      "buffer": 0,
      "byteLength": 57996,
      "byteOffset": 537160,
      "target": 34962
    },
    {
      "buffer": 0,
      "byteLength": 57996,
      "byteOffset": 595156,
      "target": 34962
    },
    {
      "buffer": 0,
      "byteLength": 38664,
      "byteOffset": 653152,
      "target": 34962
    },
    {
      "buffer": 0,
      "byteLength": 59040,
      "byteOffset": 691816,
      "target": 34963
    },
    {
      "buffer": 0,
      "byteLength": 35352,
      "byteOffset": 750856,
      "target": 34962
    },
    {
      "buffer": 0,
      "byteLength": 35352,
      "byteOffset": 786208,
      "target": 34962
    },
    {
      "buffer": 0,
      "byteLength": 23568,
      "byteOffset": 821560,
      "target": 34962
    },
    {
      "buffer": 0,
      "byteLength": 21600,
      "byteOffset": 845128,
      "target": 34963
    },
    {
      "buffer": 0,
      "byteLength": 17064,
      "byteOffset": 866728,
      "target": 34962
    },
    {
      "buffer": 0,
      "byteLength": 17064,
      "byteOffset": 883792,
      "target": 34962
    },
    {
      "buffer": 0,
      "byteLength": 11376,
      "byteOffset": 900856,
      "target": 34962
    }
  ],
  "buffers": [
    {
      "byteLength": 912232,
      "uri": "Untitled.bin"
    }
  ],
  "images": [
    {
      "uri": "blinn1SG_baseColor.png"
    },
    {
      "uri": "blinn1SG_occlusionRoughnessMetallic.png"
    },
    {
      "uri": "blinn1SG_normal.png"
    }
  ],
  "materials": [
    {
      "alphaMode": "OPAQUE",
      "name": "blinn1SG",
      "normalTexture": {
        "index": 2
      },
      "occlusionTexture": {
        "index": 1
      },
      "pbrMetallicRoughness": {
        "baseColorTexture": {
          "index": 0
        },
        "metallicRoughnessTexture": {
          "index": 1
        }
      }
    }
  ],
  "meshes": [
    {
      "name": "bottom_2 bottom water_bottle",
      "primitives": [
        {
          "attributes": {
            "NORMAL": 2,
            "POSITION": 1,
            "TEXCOORD_0": 3
          },
          "indices": 0,
          "material": 0,
          "mode": 4
        }
      ]
    },
    {
      "name": "bottom water_bottle bottom_3",
      "primitives": [
        {
          "attributes": {
            "NORMAL": 6,
            "POSITION": 5,
            "TEXCOORD_0": 7
          },
          "indices": 4,
          "material": 0,
          "mode": 4
        }
      ]
    },
    {
      "name": "water_bottle ring_1 ring",
      "primitives": [
        {
          "attributes": {
            "NORMAL": 10,
            "POSITION": 9,
            "TEXCOORD_0": 11
          },
          "indices": 8,
          "material": 0,
          "mode": 4
        }
      ]
    },
    {
      "name": "textureEditorIsolateSelectSet water_bottle ring_1 ring",
      "primitives": [
        {
          "attributes": {
            "NORMAL": 14,
            "POSITION": 13,
            "TEXCOORD_0": 15
          },
          "indices": 12,
          "material": 0,
          "mode": 4
        }
      ]
    },
    {
      "name": "water_bottle cap",
      "primitives": [
        {
          "attributes": {
            "NORMAL": 18,
            "POSITION": 17,
            "TEXCOORD_0": 19
          },
          "indices": 16,
          "material": 0,
          "mode": 4
        }
      ]
    },
    {
      "name": "bottom water_bottle bottom_1",
      "primitives": [
        {
          "attributes": {
            "NORMAL": 22,
            "POSITION": 21,
            "TEXCOORD_0": 23
          },
          "indices": 20,
          "material": 0,
          "mode": 4
        }
      ]
    },
    {
      "name": "water_bottle ring ring_2",
      "primitives": [
        {
          "attributes": {
            "NORMAL": 26,
            "POSITION": 25,
            "TEXCOORD_0": 27
          },
          "indices": 24,
          "material": 0,
          "mode": 4
        }
      ]
    }
  ],
  "nodes": [
    {
      "children": [
        1,
        3,
        5,
        7,
        9,
        11,
        13
      ],
      "name": "water%20bottle.obj"
    },
    {
      "children": [
        2
      ],
      "name": "bottom_2 bottom water_bottle"
    },
    {
      "mesh": 0,
      "name": "bottom_2 bottom water_bottle"
    },
    {
      "children": [
        4
      ],
      "name": "bottom water_bottle bottom_3"
    },
    {
      "mesh": 1,
      "name": "bottom water_bottle bottom_3"
    },
    {
      "children": [
        6
      ],
      "name": "water_bottle ring_1 ring"
    },
    {
      "mesh": 2,
      "name": "water_bottle ring_1 ring"
    },
    {
      "children": [
        8
      ],
      "name": "textureEditorIsolateSelectSet water_bottle ring_1 ring"
    },
    {
      "mesh": 3,
      "name": "textureEditorIsolateSelectSet water_bottle ring_1 ring"
    },
    {
      "children": [
        10
      ],
      "name": "water_bottle cap"
    },
    {
      "mesh": 4,
      "name": "water_bottle cap"
    },
    {
      "children": [
        12
      ],
      "name": "bottom water_bottle bottom_1"
    },
    {
      "mesh": 5,
      "name": "bottom water_bottle bottom_1"
    },
    {
      "children": [
        14
      ],
      "name": "water_bottle ring ring_2"
    },
    {
      "mesh": 6,
      "name": "water_bottle ring ring_2"
    }
  ],
  "samplers": [
    {
      "magFilter": 9729,
      "minFilter": 9985,
      "wrapS": 10497,
      "wrapT": 10497
    }
  ],
  "scene": 0,
  "scenes": [
    {
      "name": "Scene",
      "nodes": [
        0
      ]
    }
  ],
  "textures": [
    {
      "sampler": 0,
      "source": 0
    },
    {
      "sampler": 0,
      "source": 1
    },
    {
      "sampler": 0,
      "source": 2
    }
  ]
}